<svg width="640" height="640" viewBox="0 0 640 640" fill="none" xmlns="http://www.w3.org/2000/svg">
<path opacity="0.4" d="M250.9 389.1L309.4 372.4C313.3 371.3 316.9 369.2 319.8 366.3L454.1 232L408 185.9L273.8 320.2C270.9 323.1 268.8 326.7 267.7 330.6L251 389.1H250.9Z" fill="#FACC14"/>
<path d="M505 122.9L517.1 135C526.5 144.4 526.5 159.6 517.1 168.9L488 198.1L441.9 152L471 122.9C480.4 113.5 495.6 113.5 504.9 122.9H505ZM273.8 320.2L408 185.9L454.1 232L319.8 366.2C316.9 369.1 313.3 371.2 309.4 372.3L250.9 389L267.6 330.5C268.7 326.6 270.8 323 273.7 320.1L273.8 320.2ZM437.1 89L239.8 286.2C231.1 294.9 224.8 305.6 221.5 317.3L192.9 417.3C190.5 425.7 192.8 434.7 199 440.9C205.2 447.1 214.2 449.4 222.6 447L322.6 418.4C334.4 415 345.1 408.7 353.7 400.1L551 202.9C579.1 174.8 579.1 129.2 551 101.1L538.9 89C510.8 60.9 465.2 60.9 437.1 89ZM152 128C103.4 128 64 167.4 64 216V488C64 536.6 103.4 576 152 576H424C472.6 576 512 536.6 512 488V376C512 362.7 501.3 352 488 352C474.7 352 464 362.7 464 376V488C464 510.1 446.1 528 424 528H152C129.9 528 112 510.1 112 488V216C112 193.9 129.9 176 152 176H264C277.3 176 288 165.3 288 152C288 138.7 277.3 128 264 128H152Z" fill="#FACC14"/>
</svg>
