<svg width="640" height="640" viewBox="0 0 640 640" fill="none" xmlns="http://www.w3.org/2000/svg">
<path d="M96 160C96 124.7 124.7 96 160 96H480C515.3 96 544 124.7 544 160V255C529.3 247.7 513.1 242.8 496 240.9V224C496 206.3 481.7 192 464 192H368C350.3 192 336 206.3 336 224V240H304V224C304 206.3 289.7 192 272 192H176C158.3 192 144 206.3 144 224V240.9C126.9 242.8 110.7 247.7 96 255V160ZM64 384C64 331 107 288 160 288H480C533 288 576 331 576 384V512C576 529.7 561.7 544 544 544C526.3 544 512 529.7 512 512V480H128V512C128 529.7 113.7 544 96 544C78.3 544 64 529.7 64 512V384Z" fill="#FACC14"/>
</svg>
