<svg width="223" height="66" viewBox="0 0 223 66" fill="none" xmlns="http://www.w3.org/2000/svg">
<path d="M213.115 9.44531C206.942 3.35156 198.721 0 189.985 0C171.953 0 157.28 14.4509 157.28 32.2098C157.28 37.8828 158.783 43.4252 161.641 48.3147L157 65L174.34 60.5167C179.113 63.0848 184.49 64.4342 189.971 64.4342H189.985C208.003 64.4342 223 49.9833 223 32.2243C223 23.6205 219.288 15.5391 213.115 9.44531ZM189.985 59.0078C185.094 59.0078 180.306 57.7165 176.137 55.279L175.15 54.6987L164.867 57.3538L167.607 47.4732L166.959 46.4576C164.233 42.192 162.804 37.2734 162.804 32.2098C162.804 17.4542 175.003 5.44085 190 5.44085C197.263 5.44085 204.084 8.22656 209.211 13.2902C214.338 18.3538 217.49 25.0714 217.475 32.2243C217.475 46.9944 204.968 59.0078 189.985 59.0078ZM204.894 38.9565C204.084 38.5502 200.062 36.606 199.311 36.3449C198.559 36.0692 198.014 35.9386 197.469 36.7511C196.924 37.5636 195.363 39.3627 194.876 39.9141C194.405 40.4509 193.919 40.5234 193.108 40.1172C188.306 37.7522 185.153 35.8951 181.986 30.5413C181.146 29.1194 182.825 29.221 184.387 26.1451C184.652 25.6083 184.52 25.144 184.313 24.7377C184.107 24.3315 182.472 20.3705 181.794 18.76C181.131 17.1931 180.454 17.4107 179.953 17.3817C179.481 17.3527 178.936 17.3527 178.391 17.3527C177.846 17.3527 176.962 17.5558 176.211 18.3538C175.459 19.1663 173.353 21.1105 173.353 25.0714C173.353 29.0324 176.284 32.8627 176.682 33.3996C177.095 33.9364 182.442 42.0614 190.648 45.558C195.834 47.7634 197.867 47.952 200.46 47.5748C202.036 47.3426 205.292 45.6306 205.97 43.7444C206.647 41.8583 206.647 40.2478 206.441 39.9141C206.25 39.5513 205.704 39.3482 204.894 38.9565Z" fill="#FACC14"/>
<path d="M112.044 17.9004C109.819 17.8954 107.615 18.2681 105.558 18.9971C103.5 19.7262 101.629 20.7974 100.052 22.1496C96.8661 24.8804 95.0699 28.5899 95.0582 32.4619C95.0465 36.334 96.8202 40.0514 99.9891 42.7965C103.158 45.5416 107.463 47.0895 111.956 47.0996C116.449 47.1097 120.763 45.5812 123.949 42.8504C127.134 40.1196 128.93 36.4101 128.942 32.5381C128.954 28.666 127.18 24.9485 124.011 22.2034C120.842 19.4583 116.538 17.9105 112.044 17.9004ZM111.956 23.0293C113.399 23.0243 114.829 23.2643 116.165 23.7356C117.501 24.207 118.715 24.9004 119.74 25.7763C120.765 26.6522 121.579 27.6934 122.137 28.8405C122.694 29.9877 122.985 31.2182 122.99 32.4619C122.996 33.7056 122.718 34.9381 122.171 36.0891C121.624 37.24 120.819 38.2869 119.803 39.1699C118.786 40.0528 117.578 40.7546 116.247 41.2352C114.916 41.7158 113.488 41.9657 112.044 41.9707C110.601 41.9757 109.171 41.7357 107.835 41.2644C106.5 40.793 105.285 40.0996 104.26 39.2237C103.236 38.3478 102.421 37.3066 101.863 36.1595C101.306 35.0123 101.016 33.7818 101.01 32.5381C101.004 31.2944 101.283 30.0619 101.83 28.9109C102.377 27.76 103.181 26.7131 104.198 25.8301C105.214 24.9472 106.422 24.2454 107.754 23.7648C109.085 23.2842 110.513 23.0343 111.956 23.0293ZM125.716 17.3037C125.716 16.4014 126.132 15.536 126.872 14.8979C127.613 14.2598 128.617 13.9014 129.664 13.9014C130.711 13.9014 131.715 14.2598 132.456 14.8979C133.196 15.536 133.612 16.4014 133.612 17.3037C133.612 18.2061 133.196 19.0715 132.456 19.7095C131.715 20.3476 130.711 20.7061 129.664 20.7061C128.617 20.7061 127.613 20.3476 126.872 19.7095C126.132 19.0715 125.716 18.2061 125.716 17.3037ZM144.823 20.7568C144.573 16.1992 143.365 12.1621 139.49 8.83594C135.63 5.50977 130.946 4.46875 125.657 4.24023C120.206 3.97363 103.868 3.97363 98.4171 4.24023C93.143 4.45605 88.4582 5.49707 84.5836 8.82324C80.7091 12.1494 79.5158 16.1865 79.2506 20.7441C78.9412 25.4414 78.9412 39.5205 79.2506 44.2178C79.501 48.7754 80.7091 52.8125 84.5836 56.1387C88.4582 59.4648 93.1283 60.5059 98.4171 60.7344C103.868 61.001 120.206 61.001 125.657 60.7344C130.946 60.5186 135.63 59.4775 139.49 56.1387C143.35 52.8125 144.558 48.7754 144.823 44.2178C145.133 39.5205 145.133 25.4541 144.823 20.7568ZM137.781 49.2578C136.632 51.7461 134.408 53.6631 131.505 54.666C127.16 56.1514 116.847 55.8086 112.044 55.8086C107.242 55.8086 96.9144 56.1387 92.5832 54.666C89.6957 53.6758 87.4711 51.7588 86.3073 49.2578C84.5836 45.5127 84.9814 36.626 84.9814 32.4873C84.9814 28.3486 84.5984 19.4492 86.3073 15.7168C87.4564 13.2285 89.6809 11.3115 92.5832 10.3086C96.9292 8.82324 107.242 9.16602 112.044 9.16602C116.847 9.16602 127.174 8.83594 131.505 10.3086C134.393 11.2988 136.618 13.2158 137.781 15.7168C139.505 19.4619 139.107 28.3486 139.107 32.4873C139.107 36.626 139.505 45.5254 137.781 49.2578Z" fill="#FACC14"/>
<path d="M112.044 17.9004C109.819 17.8954 107.615 18.2681 105.558 18.9971C103.5 19.7262 101.629 20.7974 100.052 22.1496C96.8661 24.8804 95.0699 28.5899 95.0582 32.4619C95.0465 36.334 96.8202 40.0514 99.9891 42.7965C103.158 45.5416 107.463 47.0895 111.956 47.0996C116.449 47.1097 120.763 45.5812 123.949 42.8504C127.134 40.1196 128.93 36.4101 128.942 32.5381C128.954 28.666 127.18 24.9485 124.011 22.2034C120.842 19.4583 116.538 17.9105 112.044 17.9004ZM111.956 23.0293C113.399 23.0243 114.829 23.2643 116.165 23.7356C117.501 24.207 118.715 24.9004 119.74 25.7763C120.765 26.6522 121.579 27.6934 122.137 28.8405C122.694 29.9877 122.985 31.2182 122.99 32.4619C122.996 33.7056 122.718 34.9381 122.171 36.0891C121.624 37.24 120.819 38.2869 119.803 39.1699C118.786 40.0528 117.578 40.7546 116.247 41.2352C114.916 41.7158 113.488 41.9657 112.044 41.9707C110.601 41.9757 109.171 41.7357 107.835 41.2644C106.5 40.793 105.285 40.0996 104.26 39.2237C103.236 38.3478 102.421 37.3066 101.863 36.1595C101.306 35.0123 101.016 33.7818 101.01 32.5381C101.004 31.2944 101.283 30.0619 101.83 28.9109C102.377 27.76 103.181 26.7131 104.198 25.8301C105.214 24.9472 106.422 24.2454 107.754 23.7648C109.085 23.2842 110.513 23.0343 111.956 23.0293ZM125.716 17.3037C125.716 16.4014 126.132 15.536 126.872 14.8979C127.613 14.2598 128.617 13.9014 129.664 13.9014C130.711 13.9014 131.715 14.2598 132.456 14.8979C133.196 15.536 133.612 16.4014 133.612 17.3037C133.612 18.2061 133.196 19.0715 132.456 19.7095C131.715 20.3476 130.711 20.7061 129.664 20.7061C128.617 20.7061 127.613 20.3476 126.872 19.7095C126.132 19.0715 125.716 18.2061 125.716 17.3037ZM144.823 20.7568C144.573 16.1992 143.365 12.1621 139.49 8.83594C135.63 5.50977 130.946 4.46875 125.657 4.24023C120.206 3.97363 103.868 3.97363 98.4171 4.24023C93.143 4.45605 88.4582 5.49707 84.5836 8.82324C80.7091 12.1494 79.5158 16.1865 79.2506 20.7441C78.9412 25.4414 78.9412 39.5205 79.2506 44.2178C79.501 48.7754 80.7091 52.8125 84.5836 56.1387C88.4582 59.4648 93.1283 60.5059 98.4171 60.7344C103.868 61.001 120.206 61.001 125.657 60.7344C130.946 60.5186 135.63 59.4775 139.49 56.1387C143.35 52.8125 144.558 48.7754 144.823 44.2178C145.133 39.5205 145.133 25.4541 144.823 20.7568ZM137.781 49.2578C136.632 51.7461 134.408 53.6631 131.505 54.666C127.16 56.1514 116.847 55.8086 112.044 55.8086C107.242 55.8086 96.9144 56.1387 92.5832 54.666C89.6957 53.6758 87.4711 51.7588 86.3073 49.2578C84.5836 45.5127 84.9814 36.626 84.9814 32.4873C84.9814 28.3486 84.5984 19.4492 86.3073 15.7168C87.4564 13.2285 89.6809 11.3115 92.5832 10.3086C96.9292 8.82324 107.242 9.16602 112.044 9.16602C116.847 9.16602 127.174 8.83594 131.505 10.3086C134.393 11.2988 136.618 13.2158 137.781 15.7168C139.505 19.4619 139.107 28.3486 139.107 32.4873C139.107 36.626 139.505 45.5254 137.781 49.2578Z" fill="#FACC14"/>
<path d="M66 33C66 14.7727 51.2273 0 33 0C14.7727 0 0 14.7727 0 33C0 48.4688 10.6605 61.4625 25.0336 65.0332V43.0805H18.2273V33H25.0336V28.6559C25.0336 17.4281 30.1125 12.2203 41.1469 12.2203C43.2352 12.2203 46.8445 12.6328 48.327 13.0453V22.1719C47.5535 22.0945 46.2 22.043 44.5113 22.043C39.0973 22.043 37.009 24.0926 37.009 29.4164V33H47.7855L45.9293 43.0805H36.9961V65.7551C53.3414 63.7828 66 49.8738 66 33Z" fill="#FACC14"/>
</svg>
