<svg width="79" height="61" viewBox="0 0 79 61" fill="none" xmlns="http://www.w3.org/2000/svg">
<path d="M42.98 27.7677C44.8151 29.0183 47.2348 29.0183 49.07 27.7677L78.5956 7.78489C78.1198 3.43489 74.4359 0.0500488 69.95 0.0500488H22.1C17.614 0.0500488 13.9301 3.43489 13.4543 7.78489L42.98 27.7677ZM52.7267 33.178C48.6758 35.924 43.3742 35.924 39.3233 33.178L13.4 15.6285V39.2C13.4 43.9986 17.3014 47.9 22.1 47.9H69.95C74.7486 47.9 78.65 43.9986 78.65 39.2V15.6285L52.7267 33.1644V33.178ZM6.87498 16.3625C6.87498 14.5546 5.42044 13.1 3.61248 13.1C1.80451 13.1 0.349976 14.5546 0.349976 16.3625V52.25C0.349976 57.0486 4.25138 60.95 9.04998 60.95H62.3375C64.1454 60.95 65.6 59.4955 65.6 57.6875C65.6 55.8796 64.1454 54.425 62.3375 54.425H9.04998C7.85373 54.425 6.87498 53.4463 6.87498 52.25V16.3625Z" fill="#FACC14"/>
</svg>
