<svg width="87" height="87" viewBox="0 0 87 87" fill="none" xmlns="http://www.w3.org/2000/svg">
<path d="M46.98 40.7677C48.8151 42.0183 51.2348 42.0183 53.07 40.7677L82.5956 20.7849C82.1198 16.4349 78.4359 13.05 73.95 13.05H26.1C21.614 13.05 17.9301 16.4349 17.4543 20.7849L46.98 40.7677ZM56.7267 46.178C52.6758 48.924 47.3742 48.924 43.3233 46.178L17.4 28.6285V52.2C17.4 56.9986 21.3014 60.9 26.1 60.9H73.95C78.7486 60.9 82.65 56.9986 82.65 52.2V28.6285L56.7267 46.1644V46.178ZM10.875 29.3625C10.875 27.5546 9.42044 26.1 7.61248 26.1C5.80451 26.1 4.34998 27.5546 4.34998 29.3625V65.25C4.34998 70.0486 8.25138 73.95 13.05 73.95H66.3375C68.1454 73.95 69.6 72.4955 69.6 70.6875C69.6 68.8796 68.1454 67.425 66.3375 67.425H13.05C11.8537 67.425 10.875 66.4463 10.875 65.25V29.3625Z" fill="#FACC14"/>
</svg>
