<svg width="66" height="66" viewBox="0 0 66 66" fill="none" xmlns="http://www.w3.org/2000/svg">
<path d="M66 33C66 14.7727 51.2273 0 33 0C14.7727 0 0 14.7727 0 33C0 48.4688 10.6605 61.4625 25.0336 65.0332V43.0805H18.2273V33H25.0336V28.6559C25.0336 17.4281 30.1125 12.2203 41.1469 12.2203C43.2352 12.2203 46.8445 12.6328 48.327 13.0453V22.1719C47.5535 22.0945 46.2 22.043 44.5113 22.043C39.0973 22.043 37.009 24.0926 37.009 29.4164V33H47.7855L45.9293 43.0805H36.9961V65.7551C53.3414 63.7828 66 49.8738 66 33Z" fill="#FACC14"/>
</svg>
