<svg width="61" height="61" viewBox="0 0 61 61" fill="none" xmlns="http://www.w3.org/2000/svg">
<path d="M15.25 8.84495C12.7242 8.84495 10.675 10.8942 10.675 13.4199V37.8199C10.675 40.3457 12.7242 42.3949 15.25 42.3949H45.75C48.2758 42.3949 50.325 40.3457 50.325 37.8199V13.4199C50.325 10.8942 48.2758 8.84495 45.75 8.84495H15.25ZM9.15 13.4199C9.15 10.0554 11.8855 7.31995 15.25 7.31995H45.75C49.1145 7.31995 51.85 10.0554 51.85 13.4199V37.8199C51.85 41.1845 49.1145 43.9199 45.75 43.9199H15.25C11.8855 43.9199 9.15 41.1845 9.15 37.8199V13.4199ZM1.525 17.2324V47.7324C1.525 49.8389 3.23109 51.5449 5.3375 51.5449H41.9375C42.3569 51.5449 42.7 51.8881 42.7 52.3074C42.7 52.7268 42.3569 53.0699 41.9375 53.0699H5.3375C2.39234 53.0699 0 50.6776 0 47.7324V17.2324C0 16.8131 0.343125 16.4699 0.7625 16.4699C1.18187 16.4699 1.525 16.8131 1.525 17.2324ZM35.1417 21.0449C34.6366 21.0259 34.16 21.2546 33.855 21.6549L29.1656 27.9074C29.0417 28.0695 28.8606 28.1743 28.6605 28.2029C28.4603 28.2315 28.2506 28.1743 28.0886 28.0504L25.3341 25.9249C24.6764 25.4198 23.7328 25.5342 23.2181 26.1823L17.1181 33.8073C16.7559 34.2648 16.6797 34.8939 16.937 35.4181C17.1944 35.9423 17.7281 36.2854 18.3095 36.2854H42.7095C43.2623 36.2854 43.777 35.9804 44.0439 35.5039C44.3108 35.0273 44.3013 34.4268 44.0058 33.9598L36.3808 21.7598C36.1139 21.3309 35.6564 21.064 35.1512 21.0449H35.1417ZM32.635 20.7399C33.2355 19.9393 34.1981 19.4818 35.2084 19.5199C36.2188 19.5581 37.1338 20.1014 37.6675 20.9496L45.2925 33.1496C45.8834 34.0932 45.912 35.2751 45.3783 36.2473C44.8445 37.2195 43.8056 37.8199 42.7 37.8199H18.3C17.1277 37.8199 16.0602 37.1528 15.555 36.0948C15.0498 35.0368 15.1928 33.7882 15.9267 32.8637L22.0267 25.2387C23.0656 23.9424 24.9528 23.7137 26.2681 24.724L28.4031 26.3824L32.635 20.7399ZM21.6073 17.2324C21.6645 16.2889 21.1975 15.3929 20.3873 14.8973C19.5772 14.4112 18.5573 14.4112 17.7472 14.8973C16.937 15.3929 16.47 16.2889 16.5272 17.2324C16.47 18.176 16.937 19.072 17.7472 19.5676C18.5573 20.0537 19.5772 20.0537 20.3873 19.5676C21.1975 19.072 21.6645 18.176 21.6073 17.2324ZM15.25 17.2324C15.25 15.126 16.9561 13.4199 19.0625 13.4199C21.1689 13.4199 22.875 15.126 22.875 17.2324C22.875 19.3389 21.1689 21.0449 19.0625 21.0449C16.9561 21.0449 15.25 19.3389 15.25 17.2324Z" fill="#2A3A01"/>
</svg>
