<svg width="67" height="57" viewBox="0 0 67 57" fill="none" xmlns="http://www.w3.org/2000/svg">
<path d="M33.0443 13.9004C30.8195 13.8954 28.6153 14.2681 26.5576 14.9971C24.4998 15.7262 22.6289 16.7974 21.0516 18.1496C17.8661 20.8804 16.0699 24.5899 16.0582 28.4619C16.0465 32.334 17.8202 36.0514 20.9891 38.7965C24.1581 41.5416 28.4627 43.0895 32.9559 43.0996C37.4492 43.1097 41.7631 41.5812 44.9487 38.8504C48.1342 36.1196 49.9304 32.4101 49.9421 28.5381C49.9538 24.666 48.1801 20.9485 45.0112 18.2034C41.8422 15.4583 37.5376 13.9105 33.0443 13.9004ZM32.9559 19.0293C34.3992 19.0243 35.8295 19.2643 37.1651 19.7356C38.5007 20.207 39.7155 20.9004 40.7401 21.7763C41.7648 22.6522 42.5792 23.6934 43.1368 24.8405C43.6945 25.9877 43.9845 27.2182 43.9903 28.4619C43.9961 29.7056 43.7176 30.9381 43.1707 32.0891C42.6237 33.24 41.819 34.2869 40.8026 35.1699C39.7862 36.0528 38.5779 36.7546 37.2467 37.2352C35.9156 37.7158 34.4876 37.9657 33.0443 37.9707C31.6011 37.9757 30.1708 37.7357 28.8352 37.2644C27.4996 36.793 26.2848 36.0996 25.2602 35.2237C24.2355 34.3478 23.4211 33.3066 22.8634 32.1595C22.3058 31.0123 22.0158 29.7818 22.01 28.5381C22.0042 27.2944 22.2827 26.0619 22.8296 24.9109C23.3766 23.76 24.1812 22.7131 25.1977 21.8301C26.2141 20.9472 27.4224 20.2454 28.7535 19.7648C30.0847 19.2842 31.5127 19.0343 32.9559 19.0293ZM46.7158 13.3037C46.7158 12.4014 47.1317 11.536 47.8722 10.8979C48.6126 10.2598 49.6168 9.90137 50.664 9.90137C51.7111 9.90137 52.7154 10.2598 53.4558 10.8979C54.1962 11.536 54.6122 12.4014 54.6122 13.3037C54.6122 14.2061 54.1962 15.0715 53.4558 15.7095C52.7154 16.3476 51.7111 16.7061 50.664 16.7061C49.6168 16.7061 48.6126 16.3476 47.8722 15.7095C47.1317 15.0715 46.7158 14.2061 46.7158 13.3037ZM65.8233 16.7568C65.5729 12.1992 64.3649 8.16211 60.4903 4.83594C56.6305 1.50977 51.9457 0.46875 46.6568 0.240234C41.2059 -0.0263672 24.868 -0.0263672 19.4171 0.240234C14.143 0.456055 9.45817 1.49707 5.58362 4.82324C1.70907 8.14941 0.515764 12.1865 0.250586 16.7441C-0.0587891 21.4414 -0.0587891 35.5205 0.250586 40.2178C0.501032 44.7754 1.70907 48.8125 5.58362 52.1387C9.45817 55.4648 14.1283 56.5059 19.4171 56.7344C24.868 57.001 41.2059 57.001 46.6568 56.7344C51.9457 56.5186 56.6305 55.4775 60.4903 52.1387C64.3501 48.8125 65.5582 44.7754 65.8233 40.2178C66.1327 35.5205 66.1327 21.4541 65.8233 16.7568ZM58.7814 45.2578C57.6323 47.7461 55.4077 49.6631 52.5055 50.666C48.1595 52.1514 37.847 51.8086 33.0443 51.8086C28.2417 51.8086 17.9144 52.1387 13.5832 50.666C10.6957 49.6758 8.47112 47.7588 7.30728 45.2578C5.58362 41.5127 5.98139 32.626 5.98139 28.4873C5.98139 24.3486 5.59835 15.4492 7.30728 11.7168C8.45639 9.22852 10.6809 7.31152 13.5832 6.30859C17.9292 4.82324 28.2417 5.16602 33.0443 5.16602C37.847 5.16602 48.1742 4.83594 52.5055 6.30859C55.393 7.29883 57.6175 9.21582 58.7814 11.7168C60.505 15.4619 60.1073 24.3486 60.1073 28.4873C60.1073 32.626 60.505 41.5254 58.7814 45.2578Z" fill="#FACC14"/>
</svg>
