<svg width="127" height="127" viewBox="0 0 127 127" fill="none" xmlns="http://www.w3.org/2000/svg">
<path d="M46.1762 13.8707C47.0493 11.2712 49.4703 9.5249 52.2087 9.5249H74.8107C77.5492 9.5249 79.9701 11.2712 80.8432 13.8707L82.5498 19.0499H101.6C105.112 19.0499 107.95 21.8876 107.95 25.3999C107.95 28.9122 105.112 31.7499 101.6 31.7499H25.3998C21.8875 31.7499 19.0498 28.9122 19.0498 25.3999C19.0498 21.8876 21.8875 19.0499 25.3998 19.0499H44.4498L46.1762 13.8707ZM25.3998 41.2749H101.6V101.6C101.6 108.605 95.9046 114.3 88.8998 114.3H38.0998C31.095 114.3 25.3998 108.605 25.3998 101.6V41.2749ZM42.8623 53.9749C40.2231 53.9749 38.0998 56.0982 38.0998 58.7374V96.8374C38.0998 99.4766 40.2231 101.6 42.8623 101.6C45.5015 101.6 47.6248 99.4766 47.6248 96.8374V58.7374C47.6248 56.0982 45.5015 53.9749 42.8623 53.9749ZM63.4998 53.9749C60.8606 53.9749 58.7373 56.0982 58.7373 58.7374V96.8374C58.7373 99.4766 60.8606 101.6 63.4998 101.6C66.139 101.6 68.2623 99.4766 68.2623 96.8374V58.7374C68.2623 56.0982 66.139 53.9749 63.4998 53.9749ZM84.1373 53.9749C81.4981 53.9749 79.3748 56.0982 79.3748 58.7374V96.8374C79.3748 99.4766 81.4981 101.6 84.1373 101.6C86.7765 101.6 88.8998 99.4766 88.8998 96.8374V58.7374C88.8998 56.0982 86.7765 53.9749 84.1373 53.9749Z" fill="#623820"/>
</svg>
