<svg width="61" height="61" viewBox="0 0 61 61" fill="none" xmlns="http://www.w3.org/2000/svg">
<g clip-path="url(#clip0_146_98)">
<path d="M47.5371 45.7738C44.9041 41.1988 39.9598 38.125 34.3125 38.125H26.6875C21.0402 38.125 16.0959 41.1988 13.4629 45.7738C17.6566 50.4441 23.7328 53.375 30.5 53.375C37.2672 53.375 43.3434 50.4322 47.5371 45.7738ZM0 30.5C0 22.4109 3.21338 14.6531 8.93324 8.93324C14.6531 3.21338 22.4109 0 30.5 0C38.5891 0 46.3469 3.21338 52.0668 8.93324C57.7866 14.6531 61 22.4109 61 30.5C61 38.5891 57.7866 46.3469 52.0668 52.0668C46.3469 57.7866 38.5891 61 30.5 61C22.4109 61 14.6531 57.7866 8.93324 52.0668C3.21338 46.3469 0 38.5891 0 30.5ZM30.5 32.4062C32.7751 32.4062 34.9569 31.5025 36.5657 29.8938C38.1744 28.2851 39.0781 26.1032 39.0781 23.8281C39.0781 21.5531 38.1744 19.3712 36.5657 17.7625C34.9569 16.1538 32.7751 15.25 30.5 15.25C28.2249 15.25 26.0431 16.1538 24.4344 17.7625C22.8256 19.3712 21.9219 21.5531 21.9219 23.8281C21.9219 26.1032 22.8256 28.2851 24.4344 29.8938C26.0431 31.5025 28.2249 32.4062 30.5 32.4062Z" fill="#FACC14"/>
</g>
<defs>
<clipPath id="clip0_146_98">
<rect width="61" height="61" fill="white"/>
</clipPath>
</defs>
</svg>
