<svg width="168" height="74" viewBox="0 0 168 74" fill="none" xmlns="http://www.w3.org/2000/svg">
<g clip-path="url(#clip0_146_103)">
<path d="M47.5371 49.7738C44.9041 45.1988 39.9598 42.125 34.3125 42.125H26.6875C21.0402 42.125 16.0959 45.1988 13.4629 49.7738C17.6566 54.4441 23.7328 57.375 30.5 57.375C37.2672 57.375 43.3434 54.4322 47.5371 49.7738ZM0 34.5C0 26.4109 3.21338 18.6531 8.93324 12.9332C14.6531 7.21338 22.4109 4 30.5 4C38.5891 4 46.3469 7.21338 52.0668 12.9332C57.7866 18.6531 61 26.4109 61 34.5C61 42.5891 57.7866 50.3469 52.0668 56.0668C46.3469 61.7866 38.5891 65 30.5 65C22.4109 65 14.6531 61.7866 8.93324 56.0668C3.21338 50.3469 0 42.5891 0 34.5ZM30.5 36.4062C32.7751 36.4062 34.9569 35.5025 36.5657 33.8938C38.1744 32.2851 39.0781 30.1032 39.0781 27.8281C39.0781 25.5531 38.1744 23.3712 36.5657 21.7625C34.9569 20.1538 32.7751 19.25 30.5 19.25C28.2249 19.25 26.0431 20.1538 24.4344 21.7625C22.8256 23.3712 21.9219 25.5531 21.9219 27.8281C21.9219 30.1032 22.8256 32.2851 24.4344 33.8938C26.0431 35.5025 28.2249 36.4062 30.5 36.4062Z" fill="#FACC14"/>
</g>
<path d="M94 8.325C94 6.78719 95.2372 5.55 96.775 5.55H102.013C105.146 5.55 107.829 7.79312 108.384 10.8687L108.43 11.1H156.148C158.461 11.1 160.207 13.2044 159.779 15.4822L156.183 34.6644C155.524 38.1678 152.472 40.7 148.91 40.7H113.807L114.396 43.9722C114.639 45.2903 115.784 46.25 117.125 46.25H146.725C148.263 46.25 149.5 47.4872 149.5 49.025C149.5 50.5628 148.263 51.8 146.725 51.8H117.137C113.113 51.8 109.667 48.9209 108.95 44.9666L102.926 11.8631C102.845 11.4237 102.464 11.1 102.013 11.1H96.775C95.2372 11.1 94 9.86281 94 8.325ZM112.5 61.05C112.5 57.9859 114.986 55.5 118.05 55.5C121.114 55.5 123.6 57.9859 123.6 61.05C123.6 64.1141 121.114 66.6 118.05 66.6C114.986 66.6 112.5 64.1141 112.5 61.05ZM138.4 61.05C138.4 57.9859 140.886 55.5 143.95 55.5C147.014 55.5 149.5 57.9859 149.5 61.05C149.5 64.1141 147.014 66.6 143.95 66.6C140.886 66.6 138.4 64.1141 138.4 61.05ZM132.85 16.465C131.312 16.465 130.075 17.7022 130.075 19.24V23.125H126.19C124.652 23.125 123.415 24.3622 123.415 25.9C123.415 27.4378 124.652 28.675 126.19 28.675H130.075V32.56C130.075 34.0978 131.312 35.335 132.85 35.335C134.388 35.335 135.625 34.0978 135.625 32.56V28.675H139.51C141.048 28.675 142.285 27.4378 142.285 25.9C142.285 24.3622 141.048 23.125 139.51 23.125H135.625V19.24C135.625 17.7022 134.388 16.465 132.85 16.465Z" fill="#FACC14"/>
<defs>
<clipPath id="clip0_146_103">
<rect width="61" height="61" fill="white" transform="translate(0 4)"/>
</clipPath>
</defs>
</svg>
