<svg width="52" height="55" viewBox="0 0 52 55" fill="none" xmlns="http://www.w3.org/2000/svg">
<g clip-path="url(#clip0_50_15)">
<path d="M29.0637 22.3368C29.0637 14.8302 23.3463 8.75024 16.2874 8.75024C9.2285 8.75024 3.51111 14.8302 3.51111 22.3368C3.51111 29.8434 9.2285 35.9233 16.2874 35.9233C23.3463 35.9233 29.0637 29.8434 29.0637 22.3368ZM26.5963 36.1866C23.7695 38.5727 20.1842 39.9993 16.2874 39.9993C7.11243 39.9993 -0.321777 32.0936 -0.321777 22.3368C-0.321777 12.5799 7.11243 4.67427 16.2874 4.67427C25.4624 4.67427 32.8966 12.5799 32.8966 22.3368C32.8966 26.4807 31.5551 30.2934 29.3112 33.2994L40.0034 44.6697C40.754 45.4679 40.754 46.7586 40.0034 47.5483C39.2528 48.3381 38.039 48.3465 37.2964 47.5483L26.5963 36.1866Z" fill="#623820"/>
</g>
<defs>
<clipPath id="clip0_50_15">
<rect width="51.1052" height="54.3462" fill="white"/>
</clipPath>
</defs>
</svg>
