<svg width="111" height="97" viewBox="0 0 111 97" fill="none" xmlns="http://www.w3.org/2000/svg">
<path d="M11.1 23.0375C11.1 21.0217 12.9558 19.4 15.2625 19.4C17.5692 19.4 19.425 21.0217 19.425 23.0375V73.9625C19.425 75.9783 17.5692 77.6 15.2625 77.6C12.9558 77.6 11.1 75.9783 11.1 73.9625V23.0375ZM34.514 51.0766C32.8837 49.6519 32.8837 47.3481 34.514 45.9386L58.1015 25.3109C59.7319 23.8863 62.3681 23.8863 63.9811 25.3109C65.594 26.7356 65.6114 29.0394 63.9811 30.4489L47.5045 44.8473H95.7375C98.0442 44.8473 99.9 46.4691 99.9 48.4848C99.9 50.5006 98.0442 52.1223 95.7375 52.1223H47.5045L63.9811 66.5208C65.6114 67.9455 65.6114 70.2492 63.9811 71.6588C62.3508 73.0683 59.7145 73.0834 58.1015 71.6588L34.514 51.0766Z" fill="#FACC14"/>
</svg>
