<svg width="66" height="65" viewBox="0 0 66 65" fill="none" xmlns="http://www.w3.org/2000/svg">
<path d="M56.1147 9.44531C49.942 3.35156 41.7214 0 32.9853 0C14.9531 0 0.279911 14.4509 0.279911 32.2098C0.279911 37.8828 1.78259 43.4252 4.64062 48.3147L0 65L17.3397 60.5167C22.1129 63.0848 27.4902 64.4342 32.9705 64.4342H32.9853C51.0027 64.4342 66 49.9833 66 32.2243C66 23.6205 62.2875 15.5391 56.1147 9.44531ZM32.9853 59.0078C28.0942 59.0078 23.3062 57.7165 19.1371 55.279L18.15 54.6987L7.86696 57.3538L10.6071 47.4732L9.95893 46.4576C7.23348 42.192 5.80446 37.2734 5.80446 32.2098C5.80446 17.4542 18.0027 5.44085 33 5.44085C40.2629 5.44085 47.0839 8.22656 52.2107 13.2902C57.3375 18.3538 60.4902 25.0714 60.4754 32.2243C60.4754 46.9944 47.9679 59.0078 32.9853 59.0078ZM47.8942 38.9565C47.0839 38.5502 43.0621 36.606 42.3107 36.3449C41.5594 36.0692 41.0143 35.9386 40.4692 36.7511C39.9241 37.5636 38.3625 39.3627 37.8763 39.9141C37.4049 40.4509 36.9188 40.5234 36.1085 40.1172C31.3058 37.7522 28.1531 35.8951 24.9857 30.5413C24.146 29.1194 25.8254 29.221 27.3871 26.1451C27.6522 25.6083 27.5196 25.144 27.3134 24.7377C27.1071 24.3315 25.4719 20.3705 24.7942 18.76C24.1312 17.1931 23.4536 17.4107 22.9527 17.3817C22.4813 17.3527 21.9362 17.3527 21.3911 17.3527C20.846 17.3527 19.9621 17.5558 19.2107 18.3538C18.4594 19.1663 16.3527 21.1105 16.3527 25.0714C16.3527 29.0324 19.2844 32.8627 19.6821 33.3996C20.0946 33.9364 25.4424 42.0614 33.6482 45.558C38.8339 47.7634 40.867 47.952 43.4598 47.5748C45.0362 47.3426 48.292 45.6306 48.9696 43.7444C49.6473 41.8583 49.6473 40.2478 49.4411 39.9141C49.2496 39.5513 48.7045 39.3482 47.8942 38.9565Z" fill="#FACC14"/>
</svg>
